<svg xmlns="http://www.w3.org/2000/svg" width="16" height="16" viewBox="0 0 16 16">
  <metadata><?xpacket begin="﻿" id="W5M0MpCehiHzreSzNTczkc9d"?>
<x:xmpmeta xmlns:x="adobe:ns:meta/" x:xmptk="Adobe XMP Core 5.6-c138 79.159824, 2016/09/14-01:09:01        ">
   <rdf:RDF xmlns:rdf="http://www.w3.org/1999/02/22-rdf-syntax-ns#">
      <rdf:Description rdf:about=""/>
   </rdf:RDF>
</x:xmpmeta>
                                                                                                    
                                                                                                    
                                                                                                    
                                                                                                    
                                                                                                    
                                                                                                    
                                                                                                    
                                                                                                    
                                                                                                    
                                                                                                    
                                                                                                    
                                                                                                    
                                                                                                    
                                                                                                    
                                                                                                    
                                                                                                    
                                                                                                    
                                                                                                    
                                                                                                    
                                                                                                    
                           
<?xpacket end="w"?></metadata>
<defs>
    <style>
      .cls-1 {
        fill: #fff;
        fill-rule: evenodd;
      }
    </style>
  </defs>
  <path id="预览关" class="cls-1" d="M877.894,1333.47q-2.61,5.52-7.894,5.53t-7.895-5.53a1.1,1.1,0,0,1,0-.94q2.61-5.52,7.895-5.53t7.894,5.53A1.1,1.1,0,0,1,877.894,1333.47ZM870,1328.33c-2.96,0-5.127,1.5-6.656,4.67,1.529,3.17,3.7,4.68,6.656,4.68s5.128-1.51,6.655-4.68C875.127,1329.83,872.959,1328.33,870,1328.33Zm-0.074,7.91a3.24,3.24,0,1,1,3.23-3.24A3.234,3.234,0,0,1,869.926,1336.24Zm0-5.3a2.06,2.06,0,1,0,2.055,2.06A2.055,2.055,0,0,0,869.926,1330.94Z" transform="translate(-862 -1325)"/>
</svg>
