<svg id="加载logo" xmlns="http://www.w3.org/2000/svg" width="69.34" height="51.79" viewBox="0 0 69.34 51.79">
  <defs>
    <style>
      .cls-1 {
        fill: #363636;
      }

      .cls-1, .cls-2 {
        fill-rule: evenodd;
      }

      .cls-2 {
        fill: #4f4f4f;
      }
    </style>
  </defs>
  <path id="圆角矩形_57_拷贝_3" data-name="圆角矩形 57 拷贝 3" class="cls-1" d="M1789.02,1354.8h-43.05a10,10,0,0,1-10-10v-26.46a10,10,0,0,1,10-10h43.05a10,10,0,0,1,10,10v26.46A10,10,0,0,1,1789.02,1354.8Zm-13.05-8.65c-0.36-.64-5.61-9.42-5.94-9.96a0.754,0.754,0,0,0-1.29,0c-0.21.36-1.56,2.62-2.91,4.89-3.02-5.18-7.78-13.33-8.19-14.02a1.321,1.321,0,0,0-2.3,0c-0.8,1.36-10.12,17.35-10.59,18.16a1.307,1.307,0,0,0,1.15,2h29.44A0.7,0.7,0,0,0,1775.97,1346.15Zm9.67-27.39a3.805,3.805,0,1,0,3.84,3.81A3.82,3.82,0,0,0,1785.64,1318.76Z" transform="translate(-1735.97 -1308.34)"/>
  <path id="圆角矩形_57" data-name="圆角矩形 57" class="cls-2" d="M1795.3,1360.11h-42.05a10,10,0,0,1-10-10v-26.45a10,10,0,0,1,10-10h42.05a9.991,9.991,0,0,1,10,10v26.45A10,10,0,0,1,1795.3,1360.11Zm-12.03-8.67c-0.36-.63-5.62-9.41-5.94-9.95a0.754,0.754,0,0,0-1.29,0c-0.22.36-1.56,2.61-2.92,4.88-3.01-5.17-7.77-13.33-8.18-14.02a1.328,1.328,0,0,0-2.3,0c-0.8,1.37-10.13,17.36-10.59,18.16a1.308,1.308,0,0,0,1.14,2.01h29.44A0.714,0.714,0,0,0,1783.27,1351.44Zm9.67-27.36a3.79,3.79,0,1,0,3.82,3.79A3.8,3.8,0,0,0,1792.94,1324.08Z" transform="translate(-1735.97 -1308.34)"/>
</svg>
